<svg id="Layer_1" data-name="Layer 1" xmlns="http://www.w3.org/2000/svg" xmlns:xlink="http://www.w3.org/1999/xlink" viewBox="0 0 632.03 147.57"><defs><style>.cls-1{fill:url(#linear-gradient);}.cls-2{fill:url(#linear-gradient-2);}.cls-3{fill:url(#linear-gradient-3);}.cls-4{font-size:131px;fill:#d487ff;font-family:Roboto-Bold, Roboto;font-weight:700;}.cls-5{letter-spacing:-0.02em;}.cls-6{letter-spacing:-0.01em;}</style><linearGradient id="linear-gradient" x1="-14.65" y1="108.27" x2="656.56" y2="108.27" gradientTransform="matrix(1, 0, 0, -1, 0, 142)" gradientUnits="userSpaceOnUse"><stop offset="0" stop-color="#da8cff"/><stop offset="1" stop-color="#9a55ff"/></linearGradient><linearGradient id="linear-gradient-2" x1="-14.65" y1="49.41" x2="656.56" y2="49.41" xlink:href="#linear-gradient"/><linearGradient id="linear-gradient-3" x1="-14.65" y1="72.96" x2="656.56" y2="72.96" xlink:href="#linear-gradient"/></defs><title>logo</title><path class="cls-1" d="M100.2,30,53.1,6.5a4,4,0,0,0-3.7,0L2.3,30A4.23,4.23,0,0,0,0,33.7a4.11,4.11,0,0,0,2.3,3.7L49.4,61a4.06,4.06,0,0,0,1.9.4,4.33,4.33,0,0,0,1.9-.4l47.1-23.5a4.11,4.11,0,0,0,2.3-3.7A4.56,4.56,0,0,0,100.2,30Zm-49,22.7-37.8-19L51.2,14.8,89,33.7Z" transform="translate(0.03 15.42)"/><path class="cls-2" d="M102,79a4.25,4.25,0,0,0-5.6-1.9L51.2,99.8,6,77.1a4.18,4.18,0,0,0-3.7,7.5l47.1,23.5a4.06,4.06,0,0,0,1.9.4,4.33,4.33,0,0,0,1.9-.4l47.1-23.5A4.33,4.33,0,0,0,102,79Z" transform="translate(0.03 15.42)"/><path class="cls-3" d="M102,55.4a4.25,4.25,0,0,0-5.6-1.9L51.2,76.2,6,53.6a4.18,4.18,0,1,0-3.7,7.5L49.4,84.6a4.06,4.06,0,0,0,1.9.4,4.33,4.33,0,0,0,1.9-.4l47-23.6A4.21,4.21,0,0,0,102,55.4Z" transform="translate(0.03 15.42)"/><text class="cls-4" transform="translate(123.03 112.07)"><tspan class="cls-5">W</tspan><tspan x="112.58" y="0">e Ca</tspan><tspan class="cls-6" x="371.96" y="0">r</tspan><tspan x="418.52" y="0">e</tspan></text></svg>